<?xml version="1.0" encoding="UTF-8"?><svg fill="#2DD6C1" id="Layer_2" xmlns="http://www.w3.org/2000/svg" viewBox="0 0 976.97 948.25"><defs><style>.cls-1{stroke-width:0px;}</style></defs><g id="Layer_1-2"><path fill="#2DD6C1" class="cls-1" d="m561.5,0c4.36,9.38,9.05,18.63,13.01,28.18,9.7,23.4,16.42,47.72,15.67,73.15-.76,25.67-6.21,50.45-17.1,74.18-18.73,40.8-46.78,75.06-74.41,109.7-37.59,47.13-76.91,93.16-102.79,148.28-30.14,64.19-21.46,123.97,21.73,179.78,36.92,47.71,86.94,73.97,143.3,90.82,35.56,10.63,71.96,17.1,108.53,22.39,33.37,4.83,67.11,7.15,100.47,12.06,31.11,4.58,62.28,9.7,92.78,17.19,31.51,7.73,59.26,23.83,82.3,47.14,11.16,11.29,23.84,21.32,31.97,36.57-18.08-5.39-35.22-10.72-52.49-15.6-51.91-14.68-104.7-25.3-157.91-33.93-66.75-10.82-133.28-22.97-197.5-44.65-53.63-18.11-103.23-43.89-146.86-80.75-29.74-25.13-54.59-53.78-71.64-88.85-23.63-48.58-26.43-99.21-13.17-150.92,12.15-47.37,37.16-87.82,67.7-125.62,36.14-44.74,72.97-89.08,103.17-138.28,20.68-33.69,37.9-68.98,45.13-108.18,3.13-16.95,3.96-34.32,5.83-51.49.76-.38,1.52-.76,2.28-1.14Z"/><path fill="#2DD6C1" class="cls-1" d="m0,258.59c6.65-3.44,13.08-7.44,19.99-10.24,33.36-13.5,67.4-19.98,102.48-6.92,18.78,6.99,34.43,18.95,47.21,34.25,24.46,29.28,39.06,63.69,50.37,99.65,18.09,57.53,34.23,115.77,63.75,169.01,18.47,33.31,39.92,64.26,66.29,91.98,37.71,39.65,81.82,71.44,125.08,104.32,36.43,27.69,71.68,56.82,102.57,90.62,22.56,24.7,42.24,51.81,52.34,84.34,3.18,10.23,3.91,21.23,5.77,31.87-.87.26-1.74.52-2.61.78-7.06-10.68-12.91-22.48-21.44-31.81-19.08-20.87-37.65-42.86-59.73-60.19-56.38-44.25-114.6-86.15-172.02-129.08-66.73-49.89-121.72-110.09-162.18-183.31-22.58-40.86-42.31-83.01-60.76-125.86-17.59-40.87-38.57-80.05-69.42-112.65-21.16-22.35-46.83-37.85-78.1-42.27-2.97-.42-5.89-1.25-8.83-1.89-.25-.86-.5-1.73-.75-2.59Z"/><path class="cls-1" d="m614.08,212.25c11.43,10.05,16.69,20.99,17.75,34.33,1.92,24.04-5.23,46.11-14.62,67.58-13.5,30.83-33.56,57.39-54.88,83.18-27.3,33.03-57.75,63.44-81.18,99.69-17.14,26.52-30.13,54.22-30.88,88.25-6.5-4.39-9-10.15-12.23-15.09-22.42-34.32-23.04-69.14-2.22-104.47,11.88-20.16,26.17-38.35,42.13-55.48,26.75-28.71,53.72-57.3,78.83-87.42,26.53-31.81,46.4-67.75,57.3-110.57Z"/><path fill="#2DD6C1" class="cls-1" d="m641.3,363.36c10.5,7.18,11.16,18.16,12.05,28.26,1.46,16.64-1.16,33.28-9.65,47.66-13.66,23.13-28.48,45.6-43.52,67.87-11.48,17-24.16,33.18-36.07,49.9-3.16,4.43-5.59,9.41-8.08,14.28-17.46,34.12-5.83,58.77,20.7,78.69,18.01,13.53,39.58,18.56,61.3,21.94,13.46,2.09,27.21,2.28,40.84,3.26,13.15.95,26.3,1.82,39.79,4.99-15.29,2.64-30.49,6.09-45.89,7.72-17.65,1.87-35.52,3.5-53.2,2.8-30.98-1.22-60.25-9.29-86.43-26.89-14.72-9.9-26.54-22.37-34.7-37.99-14.63-27.99-10.98-55.18,6.86-80.03,12.46-17.35,26.21-34.01,41.05-49.38,27.39-28.36,52.37-58.49,72.91-92.13,7.79-12.77,14.25-26.36,22.05-40.95Z"/></g></svg>